<svg width="233" height="121" viewBox="0 0 233 121" fill="none" xmlns="http://www.w3.org/2000/svg">
<path d="M207.554 102L231.912 65H3.91211L19.5057 102H207.554Z" fill="#91C5B8"/>
<path d="M82.2149 9.58824V17.1176C82.2149 18.1572 81.3466 19 80.2755 19H74.4573C73.3862 19 72.5179 18.1572 72.5179 17.1176V9.58824C72.5179 8.54864 71.6496 7.70588 70.5785 7.70588H61.8513C60.7802 7.70588 59.9119 6.86312 59.9119 5.82353V4.88235C59.9119 3.84276 60.7802 3 61.8513 3H89.9725C91.0436 3 91.9119 3.84276 91.9119 4.88235V5.82353C91.9119 6.86312 91.0436 7.70588 89.9725 7.70588H84.1543C83.0832 7.70588 82.2149 8.54864 82.2149 9.58824Z" fill="#AFB4D8"/>
<path fill-rule="evenodd" clip-rule="evenodd" d="M81.6294 5.73913C80.4774 6.6117 79.7324 8.00073 79.7324 9.56522V16.2609H75.9375V9.56522C75.9375 8.00073 75.1924 6.6117 74.0405 5.73913H81.6294ZM94.9119 4.78261C94.9119 2.14125 92.7881 0 90.1683 0H62.6555C60.0356 0 57.9119 2.14125 57.9119 4.78261V5.73913C57.9119 8.38049 60.0356 10.5217 62.6555 10.5217H70.2452V17.2174C70.2452 19.8588 72.369 22 74.9888 22H80.6811C83.3009 22 85.4247 19.8588 85.4247 17.2174V10.5217H90.1683C92.7881 10.5217 94.9119 8.38049 94.9119 5.73913V4.78261Z" fill="#6F74BE"/>
<path d="M120.512 8C130.306 8.00014 130.961 19 129.061 19H111.963C111.963 19 110.718 7.99986 120.512 8Z" fill="#AFB4D8"/>
<path fill-rule="evenodd" clip-rule="evenodd" d="M125.897 15.4C125.847 15.2441 125.789 15.0844 125.722 14.9227C125.009 13.183 123.576 11.6 120.505 11.6C118.824 11.5999 117.952 12.0586 117.448 12.4797C116.882 12.952 116.429 13.6768 116.109 14.6593C116.029 14.9034 115.962 15.1516 115.906 15.4H125.897ZM111.823 19.2C107.986 19.6126 107.986 19.611 107.986 19.6093L107.986 19.6058L107.985 19.5979L107.983 19.5789L107.978 19.5281C107.974 19.4886 107.969 19.4381 107.964 19.3772C107.954 19.2555 107.943 19.0918 107.933 18.8918C107.914 18.4932 107.901 17.943 107.924 17.2897C107.968 16.0074 108.151 14.2081 108.759 12.3406C109.366 10.4731 110.462 8.34779 112.457 6.68261C114.513 4.96621 117.213 3.99995 120.505 4C127.382 4.0001 131.255 8.11712 132.879 12.0774C133.658 13.9772 133.982 15.9499 133.899 17.606C133.859 18.4002 133.714 19.3856 133.277 20.3109C132.902 21.1075 131.698 23 129.189 23H108.362L107.986 19.6126L111.823 19.2Z" fill="#6F74BE"/>
<path d="M183.537 39.7429L202.912 65H16.9119V51.4L33.3806 35.8571H138.006L146.724 31H167.068L173.849 39.7429H183.537Z" fill="#FEF8DC"/>
<path d="M144.12 19L150.912 31H147.03L138.298 36H52.9116L59.7037 19H144.12Z" fill="#91C5B8"/>
<path fill-rule="evenodd" clip-rule="evenodd" d="M18.7044 108.244C27.2918 106.132 37.6038 104.07 45.5706 103.839C54.1534 103.589 60.6751 105.503 68.0224 107.661C75.3676 109.818 83.5104 112.208 94.1651 111.757C104.134 111.336 111.604 108.568 118.304 106.086L118.486 106.019C125.233 103.519 131.212 101.335 139.253 100.995C147.762 100.635 154.232 102.586 161.586 104.809L161.597 104.813C168.939 107.033 177.137 109.512 187.851 108.912C197.069 108.397 208.164 105.552 216.659 102.978C220.971 101.673 224.735 100.398 227.423 99.4501C228.769 98.9754 229.848 98.5812 230.596 98.3037C230.97 98.1649 231.262 98.0552 231.462 97.9792L231.694 97.891L231.757 97.8669L231.783 97.8571C231.783 97.8568 231.784 97.8566 229.687 92.4244C227.589 86.9922 227.59 86.992 227.59 86.9919L227.579 86.996L227.533 87.0136L227.337 87.0885C227.16 87.1554 226.894 87.2556 226.546 87.3845C225.85 87.6426 224.83 88.0154 223.549 88.4673C220.984 89.372 217.39 90.5884 213.283 91.8323C204.942 94.3588 194.957 96.8505 187.201 97.2843C178.724 97.7584 172.27 95.8731 164.957 93.6617C164.824 93.6215 164.69 93.5811 164.556 93.5406C157.353 91.3614 149.266 88.9147 138.761 89.3588C128.792 89.7803 121.322 92.5479 114.623 95.0301L114.44 95.0977C107.693 97.5972 101.715 99.7817 93.6732 100.122C85.1197 100.483 78.612 98.6328 71.3044 96.4865L70.9094 96.3704C63.7056 94.2535 55.6746 91.8934 45.2318 92.1973C35.9643 92.467 24.652 94.7882 15.9237 96.9342C11.5023 98.0213 7.63458 99.0915 4.87003 99.8904C3.4865 100.29 2.37611 100.623 1.60715 100.857C1.22258 100.974 0.923173 101.067 0.717449 101.131L0.480139 101.205L0.416113 101.226L0.392654 101.233C0.391995 101.233 0.389581 101.234 2.15263 106.784C3.91567 112.333 3.91529 112.334 3.91496 112.334L3.92697 112.33L3.97542 112.315L4.18051 112.25C4.36428 112.193 4.64061 112.108 5.00103 111.998C5.72203 111.778 6.77865 111.461 8.10326 111.079C10.7549 110.312 14.468 109.285 18.7044 108.244Z" fill="#B2CEF8"/>
<path d="M181.912 49.7143C181.912 47.6629 180.121 46 177.912 46H171.912C169.702 46 167.912 47.6629 167.912 49.7143V55.2857C167.912 57.3371 169.702 59 171.912 59H177.912C180.121 59 181.912 57.3371 181.912 55.2857V49.7143Z" fill="#4CB5B0"/>
<path d="M140.912 27C140.912 25.3431 139.643 24 138.078 24H126.745C125.18 24 123.912 25.3431 123.912 27C123.912 28.6569 125.18 30 126.745 30H138.078C139.643 30 140.912 28.6569 140.912 27Z" fill="#6F74BE"/>
<path d="M119.912 27C119.912 25.3431 118.569 24 116.912 24H104.912C103.255 24 101.912 25.3431 101.912 27C101.912 28.6569 103.255 30 104.912 30H116.912C118.569 30 119.912 28.6569 119.912 27Z" fill="#6F74BE"/>
<path d="M97.9119 27C97.9119 25.3431 96.6433 24 95.0785 24H83.7452C82.1804 24 80.9119 25.3431 80.9119 27C80.9119 28.6569 82.1804 30 83.7452 30H95.0785C96.6433 30 97.9119 28.6569 97.9119 27Z" fill="#6F74BE"/>
<path d="M76.9119 27C76.9119 25.3431 75.5687 24 73.9119 24H61.9119C60.255 24 58.9119 25.3431 58.9119 27C58.9119 28.6569 60.255 30 61.9119 30H73.9119C75.5687 30 76.9119 28.6569 76.9119 27Z" fill="#6F74BE"/>
<path d="M163.912 49.7143C163.912 47.6629 162.249 46 160.198 46H154.626C152.575 46 150.912 47.6629 150.912 49.7143V55.2857C150.912 57.3371 152.575 59 154.626 59H160.198C162.249 59 163.912 57.3371 163.912 55.2857V49.7143Z" fill="#4CB5B0"/>
<path d="M146.912 49.7143C146.912 47.6629 145.121 46 142.912 46H136.912C134.703 46 132.912 47.6629 132.912 49.7143V55.2857C132.912 57.3371 134.703 59 136.912 59H142.912C145.121 59 146.912 57.3371 146.912 55.2857V49.7143Z" fill="#4CB5B0"/>
<path d="M128.912 49.7143C128.912 47.6629 127.249 46 125.198 46H119.626C117.575 46 115.912 47.6629 115.912 49.7143V55.2857C115.912 57.3371 117.575 59 119.626 59H125.198C127.249 59 128.912 57.3371 128.912 55.2857V49.7143Z" fill="#4CB5B0"/>
<path d="M111.912 49.7143C111.912 47.6629 110.121 46 107.912 46H101.912C99.7027 46 97.9119 47.6629 97.9119 49.7143V55.2857C97.9119 57.3371 99.7027 59 101.912 59H107.912C110.121 59 111.912 57.3371 111.912 55.2857V49.7143Z" fill="#4CB5B0"/>
<path d="M93.9119 49.7143C93.9119 47.6629 92.2489 46 90.1976 46H84.6262C82.5748 46 80.9119 47.6629 80.9119 49.7143V55.2857C80.9119 57.3371 82.5748 59 84.6262 59H90.1976C92.2489 59 93.9119 57.3371 93.9119 55.2857V49.7143Z" fill="#4CB5B0"/>
<path d="M76.9119 49.7143C76.9119 47.6629 75.121 46 72.9119 46H66.9119C64.7027 46 62.9119 47.6629 62.9119 49.7143V55.2857C62.9119 57.3371 64.7027 59 66.9119 59H72.9119C75.121 59 76.9119 57.3371 76.9119 55.2857V49.7143Z" fill="#4CB5B0"/>
<path d="M58.9119 49.7143C58.9119 47.6629 57.2489 46 55.1976 46H49.6262C47.5748 46 45.9119 47.6629 45.9119 49.7143V55.2857C45.9119 57.3371 47.5748 59 49.6262 59H55.1976C57.2489 59 58.9119 57.3371 58.9119 55.2857V49.7143Z" fill="#4CB5B0"/>
<path d="M41.9119 49.7143C41.9119 47.6629 40.121 46 37.9119 46H31.9119C29.7027 46 27.9119 47.6629 27.9119 49.7143V55.2857C27.9119 57.3371 29.7027 59 31.9119 59H37.9119C40.121 59 41.9119 57.3371 41.9119 55.2857V49.7143Z" fill="#4CB5B0"/>
</svg>
